<svg width="67" height="66" viewBox="0 0 67 66" fill="none" xmlns="http://www.w3.org/2000/svg">
    <g clip-path="url(#clip0_800_1352)">
        <path opacity="0.75"
            d="M20.0076 51.2498C21.422 42.947 35.6549 32.5797 54.6734 26.6536C54.6734 26.6536 59.1245 25.6187 60.292 25.4702C58.8156 25.125 51.382 24.7706 44.7536 26.6536C24.3128 32.4576 10.0488 44.9158 12.5496 53.3282C13.5891 56.8262 17.0376 59.315 22.7175 60.344C23.1353 60.4238 23.5531 60.4984 23.9755 60.5578H23.9808C24.0257 60.4984 24.0798 60.4383 24.1346 60.3737C23.2594 59.618 21.5988 58.0122 20.659 55.7154C20.6539 55.7096 20.6505 55.7025 20.6491 55.6949C20.4533 55.325 20.2935 54.9371 20.1719 54.5366C19.8637 53.5123 19.8142 52.4187 20.003 51.2947C20.003 51.2822 20.0076 51.265 20.0076 51.2498Z"
            fill="white" />
        <path
            d="M50.3677 30.1688C51.119 35.9169 49.6413 41.7345 46.2381 46.4272C46.2381 46.4272 46.2381 46.4325 46.2282 46.4372C43.3656 50.6747 39.875 54.4519 35.8761 57.6393C34.507 58.7202 33.0744 59.7182 31.5861 60.6278C34.7266 60.2214 37.7731 59.2742 40.5904 57.8281C51.6487 52.1752 57.2884 40.1177 55.3183 28.4878C53.6252 29.0154 51.975 29.5757 50.3677 30.1688Z"
            fill="white" />
        <path opacity="0.25"
            d="M37.2309 16.5394C27.6042 16.6054 18.782 18.1498 12.013 20.6505C8.98096 21.7725 6.18586 23.4885 3.98542 25.8599C1.4464 28.5923 0.666283 30.9762 0.527023 32.8434C0.354763 35.1613 1.05502 38.4534 1.05502 38.4369C0.932916 37.8885 0.872919 37.3282 0.876163 36.7664C1.02796 26.9067 21.4253 18.8718 46.436 18.8171C51.0688 18.8017 55.6981 19.079 60.296 19.6473C53.9124 17.6482 45.9225 16.4853 37.2309 16.5394Z"
            fill="white" />
        <path
            d="M20.1271 6.49665C36.4852 7.41141 40.8557 14.447 40.9903 14.6754C43.8145 14.7704 46.5739 14.9889 49.2403 15.3354C42.2034 6.89925 30.7181 3.37419 20.1271 6.49665Z"
            fill="white" />
        <path opacity="0.5"
            d="M7.76984 48.704C6.1667 39.3083 23.8303 28.0744 47.222 23.6161C54.0444 22.3159 60.5949 21.7411 66.4999 21.8038C59.0697 19.9874 48.8271 19.9115 37.815 22.0103C17.1082 25.9571 1.48994 36.102 2.75714 44.7341C3.25672 46.5022 4.19687 48.1145 5.48954 49.4201C6.4571 50.2781 7.6451 51.0424 9.04166 51.711C8.39288 50.7811 7.95794 49.7798 7.76984 48.704Z"
            fill="white" />
    </g>
    <defs>
        <clipPath id="clip0_800_1352">
            <rect width="66" height="66" fill="white" transform="translate(0.5)" />
        </clipPath>
    </defs>
</svg>